<?xml version="1.0" standalone="no"?><!DOCTYPE svg PUBLIC "-//W3C//DTD SVG 1.1//EN" "http://www.w3.org/Graphics/SVG/1.1/DTD/svg11.dtd"><svg id="apps" version="1.1" xmlns="http://www.w3.org/2000/svg" xmlns:xlink="http://www.w3.org/1999/xlink" style="display:block;min-height:auto;min-width:auto;width:100px;perspective-origin:50px 75px;transform-origin:50px 75px;"><title style="height:auto;overflow-x:visible;overflow-y:visible;width:auto;perspective-origin:50% 50%;transform-origin:0px 0px;">apps</title><path d="M12 28h4v-4h-4zm0-6h4v-4h-4zM6 10h4V6H6zm6 6h4v-4h-4zm-6 6h4v-4H6zm0 6h4v-4H6zm0-12h4v-4H6zm6-6h4V6h-4zm12 12h4v-4h-4zm0-6h4v-4h-4zm0 12h4v-4h-4zm0-22v4h4V6zm-6 4h4V6h-4zm0 12h4v-4h-4zm0-6h4v-4h-4zm0 12h4v-4h-4z" style="height:auto;overflow-x:visible;overflow-y:visible;width:auto;perspective-origin:0px 0px;transform-origin:0px 0px;d:path('M 12 28 h 4 v -4 h -4 Z m 0 -6 h 4 v -4 h -4 Z M 6 10 h 4 V 6 H 6 Z m 6 6 h 4 v -4 h -4 Z m -6 6 h 4 v -4 H 6 Z m 0 6 h 4 v -4 H 6 Z m 0 -12 h 4 v -4 H 6 Z m 6 -6 h 4 V 6 h -4 Z m 12 12 h 4 v -4 h -4 Z m 0 -6 h 4 v -4 h -4 Z m 0 12 h 4 v -4 h -4 Z m 0 -22 v 4 h 4 V 6 Z m -6 4 h 4 V 6 h -4 Z m 0 12 h 4 v -4 h -4 Z m 0 -6 h 4 v -4 h -4 Z m 0 12 h 4 v -4 h -4 Z');"/></svg>